<svg width="234" height="478" viewBox="0 0 234 478" fill="none" xmlns="http://www.w3.org/2000/svg">
<path opacity="0.8" d="M20.1777 63.9432C15.5553 66.4272 10.8896 65.088 8.53523 60.5736C5.87843 55.5192 7.17445 50.6808 11.7969 48.3048C16.0305 46.1232 20.9552 47.7864 23.2232 52.1928C25.7504 57.0312 24.5625 61.5888 20.1777 63.9432Z" fill="#2793F2" fill-opacity="0.2"/>
<path opacity="0.8" d="M12.6823 114.034C8.38387 116.215 3.4375 114.638 1.23429 110.383C-0.990505 106.106 0.521484 101.138 4.73349 98.8921C9.01029 96.6241 13.9783 98.0713 16.2679 102.262C18.6871 106.668 17.1103 111.787 12.6823 114.034Z" fill="#2793F2" fill-opacity="0.2"/>
<path opacity="0.8" d="M31.5606 2.57767C33.7206 6.87607 32.1223 11.8009 27.8455 14.0041C23.5471 16.2073 18.6007 14.6737 16.3759 10.4401C14.0431 6.01206 15.7063 0.914469 20.1775 -1.26713C24.4975 -3.38393 29.4006 -1.74233 31.5606 2.57767Z" fill="#2793F2" fill-opacity="0.2"/>
<path opacity="0.8" d="M5.6195 164.599C1.5371 166.5 -3.73341 164.556 -5.69901 160.409C-7.77261 156.024 -6.10936 151.553 -1.59496 149.371C2.78984 147.255 7.47709 148.853 9.52909 153.173C11.4731 157.299 9.6371 162.72 5.6195 164.599Z" fill="#2793F2" fill-opacity="0.2"/>
<path opacity="0.8" d="M-2.00546 214.388C-5.87186 216.526 -11.1855 214.906 -13.2375 210.91C-15.2679 206.957 -13.4967 201.687 -9.4791 199.786C-5.5911 197.928 -0.601463 199.613 1.36414 203.436C3.32974 207.238 1.77454 212.292 -2.00546 214.388Z" fill="#2793F2" fill-opacity="0.2"/>
<path opacity="0.8" d="M51.5192 31.3922C54.0464 36.317 53.096 39.881 48.6248 42.1706C44.1104 44.4818 40.568 43.3586 38.2784 38.909C35.7296 33.9626 36.7879 30.1394 41.2807 27.893C45.4711 25.8194 49.316 27.1154 51.5192 31.3922Z" fill="#2793F2" fill-opacity="0.2"/>
<path opacity="0.8" d="M41.5617 92.2391C37.5441 94.3559 32.9217 92.9087 30.8697 88.8911C28.7961 84.8519 30.3082 80.2727 34.369 78.2423C38.257 76.2983 42.7065 77.6807 44.7801 81.5039C46.9401 85.4783 45.5361 90.1439 41.5617 92.2391Z" fill="#2793F2" fill-opacity="0.2"/>
<path opacity="0.8" d="M37.0042 132.264C38.8402 136.217 37.2202 140.602 33.2458 142.503C29.3146 144.382 24.9082 142.827 22.9642 138.895C21.0418 134.964 22.5106 130.558 26.4418 128.571C30.5026 126.497 35.0818 128.117 37.0042 132.264Z" fill="#2793F2" fill-opacity="0.2"/>
<path opacity="0.8" d="M26.3117 192.01C22.7477 193.91 17.8445 192.312 15.9221 188.64C13.7189 184.385 14.8638 180.842 19.1838 178.596C23.547 176.328 27.111 177.343 29.3358 181.534C31.323 185.184 29.8973 190.087 26.3117 192.01Z" fill="#2793F2" fill-opacity="0.2"/>
<path opacity="0.8" d="M67.7191 17.6546C65.9047 14.1554 67.2871 9.77062 70.7863 7.95622C74.2855 6.14182 78.6703 7.52422 80.4847 11.0234C82.2991 14.5226 80.9167 18.9074 77.4175 20.7434C73.9399 22.5578 69.5335 21.1538 67.7191 17.6546Z" fill="#2793F2" fill-opacity="0.2"/>
<path opacity="0.8" d="M22.2942 232.121C24.195 235.836 22.7478 240.61 19.2054 242.381C15.8142 244.066 11.1917 242.446 9.29093 238.903C7.49813 235.555 9.05343 231.127 12.639 229.313C16.3758 227.434 20.523 228.643 22.2942 232.121Z" fill="#2793F2" fill-opacity="0.2"/>
<path opacity="0.8" d="M73.2058 60.293C75.1498 63.965 73.7889 68.7602 70.2897 70.6178C66.8337 72.4538 61.8874 70.661 60.1378 66.9458C58.561 63.5978 60.073 59.429 63.4858 57.6794C67.2226 55.7786 71.413 56.9018 73.2058 60.293Z" fill="#2793F2" fill-opacity="0.2"/>
<path opacity="0.8" d="M62.2762 120.752C58.7338 122.566 54.3058 121.119 52.5562 117.533C50.8714 114.12 52.189 109.887 55.537 108.051C59.0146 106.128 63.4858 107.468 65.365 110.967C67.2226 114.488 65.8186 118.916 62.2762 120.752Z" fill="#2793F2" fill-opacity="0.2"/>
<path opacity="0.8" d="M57.6967 160.819C59.7487 164.837 58.6903 168.293 54.8239 170.215C51.1303 172.073 47.6959 170.928 45.7735 167.234C43.6351 163.087 44.5423 159.415 48.2143 157.449C51.9295 155.462 55.6663 156.801 57.6967 160.819Z" fill="#2793F2" fill-opacity="0.2"/>
<path opacity="0.8" d="M11.1491 292.061C7.73629 293.854 3.80503 292.536 1.90423 288.972C0.0682306 285.495 1.23468 281.153 4.51788 279.339C7.43388 277.719 11.9915 279.209 13.6979 282.341C15.7715 286.121 14.7131 290.204 11.1491 292.061Z" fill="#2793F2" fill-opacity="0.2"/>
<path opacity="0.8" d="M81.8022 95.3715C80.2902 92.3259 81.6511 88.2003 84.6967 86.6235C87.8503 84.9819 92.235 86.5155 93.6606 89.7339C95.043 92.8443 93.5526 96.9483 90.4854 98.3739C87.3966 99.8427 83.2926 98.4171 81.8022 95.3715Z" fill="#2793F2" fill-opacity="0.2"/>
<path opacity="0.8" d="M37.8897 217.454C36.1185 214.063 37.5874 209.808 41.065 208.21C44.3914 206.676 48.3874 208.123 49.9642 211.428C51.541 214.733 50.1802 218.75 46.897 220.392C43.6138 222.034 39.5745 220.716 37.8897 217.454Z" fill="#2793F2" fill-opacity="0.2"/>
<path opacity="0.8" d="M88.7794 45.3238C87.1378 42.0622 88.369 38.4766 91.7386 36.7702C95.4754 34.8694 98.7801 35.7118 100.4 38.9302C102.215 42.5806 100.94 47.1599 97.7001 48.6287C94.7193 50.0111 90.313 48.3694 88.7794 45.3238Z" fill="#2793F2" fill-opacity="0.2"/>
<path opacity="0.8" d="M74.1776 145.937C72.9032 142.718 72.6438 139.738 77.3095 137.534C80.6142 135.914 84.0055 136.714 85.4527 139.414C87.3967 143.086 86.2735 147.622 83.0119 149.22C79.9663 150.689 75.4952 149.22 74.1776 145.937Z" fill="#2793F2" fill-opacity="0.2"/>
<path opacity="0.8" d="M3.6101 341.093C-0.169901 343.037 -2.61063 342.216 -4.55463 338.35C-6.62823 334.224 -5.89384 331.632 -2.13544 329.796C1.53656 328.003 4.06375 329.04 6.09415 333.166C7.90855 336.859 7.1525 339.3 3.6101 341.093Z" fill="#2793F2" fill-opacity="0.2"/>
<path opacity="0.8" d="M41.7346 261.022C43.8082 265.018 43.1602 267.502 39.553 269.359C35.7514 271.325 33.2891 270.526 31.3667 266.724C29.2931 262.642 30.0275 259.963 33.6779 258.127C37.2419 256.335 39.7906 257.242 41.7346 261.022Z" fill="#2793F2" fill-opacity="0.2"/>
<path opacity="0.8" d="M67.4387 195.401C65.9051 192.269 67.0714 188.51 70.0306 187.128C72.9898 185.746 76.5539 187.15 78.1091 190.303C79.9019 193.975 78.9946 196.87 75.4954 198.555C72.0826 200.218 69.2315 199.116 67.4387 195.401Z" fill="#2793F2" fill-opacity="0.2"/>
<path opacity="0.8" d="M23.3312 316.706C21.9056 313.855 23.0288 309.859 25.6856 308.39C28.1696 307.03 32.4033 308.498 33.8289 311.242C35.4057 314.266 34.3473 318.154 31.5177 319.622C28.6881 321.091 24.8432 319.73 23.3312 316.706Z" fill="#2793F2" fill-opacity="0.2"/>
<path opacity="0.8" d="M60.2674 245.038C58.7986 241.928 59.8138 239.487 63.2266 237.78C66.877 235.966 69.2098 236.722 70.9162 240.243C72.2986 243.116 71.0026 247.068 68.2594 248.321C65.4298 249.639 61.693 248.084 60.2674 245.038Z" fill="#2793F2" fill-opacity="0.2"/>
<path opacity="0.8" d="M111.243 73.3609C109.753 70.2505 110.746 67.7881 114.159 66.1033C117.831 64.2673 120.164 65.0017 121.87 68.5225C123.274 71.3953 122 75.3481 119.257 76.6225C116.449 77.9185 112.69 76.4065 111.243 73.3609Z" fill="#2793F2" fill-opacity="0.2"/>
<path opacity="0.8" d="M118.803 24.1779C117.442 21.5643 118.501 17.9787 121.071 16.4883C123.75 14.9331 127.594 16.0779 129.042 18.8427C130.489 21.5859 129.193 25.3875 126.407 26.7267C123.707 28.0011 120.186 26.8131 118.803 24.1779Z" fill="#2793F2" fill-opacity="0.2"/>
<path opacity="0.8" d="M103.467 123.559C102.042 120.254 103.273 117.943 106.275 116.41C109.386 114.811 112.453 115.826 113.879 118.85C115.239 121.766 113.965 125.525 111.179 126.756C108.349 127.987 104.742 126.497 103.467 123.559Z" fill="#2793F2" fill-opacity="0.2"/>
<path opacity="0.8" d="M96.6414 173.585C95.4102 170.777 95.2806 167.99 99.4062 166.241C102.344 164.729 104.828 165.398 106.426 168.574C107.917 171.533 106.88 174.881 104.029 176.263C101.264 177.624 97.959 176.587 96.6414 173.585Z" fill="#2793F2" fill-opacity="0.2"/>
<path opacity="0.8" d="M53.1822 295.301C51.6918 292.32 52.4047 288.994 55.2559 288.022C57.9127 287.115 60.7638 287.028 62.103 290.441C63.723 293.595 62.9886 296.403 60.051 297.764C57.027 299.168 54.7158 298.325 53.1822 295.301Z" fill="#2793F2" fill-opacity="0.2"/>
<path opacity="0.8" d="M17.4127 367.229C15.3823 364.075 16.6568 361.332 19.184 359.906C21.452 358.632 24.5192 358.589 26.096 361.85C27.824 364.874 27.2192 367.942 24.4544 369.346C21.5168 370.858 19.2055 370.037 17.4127 367.229Z" fill="#2793F2" fill-opacity="0.2"/>
<path opacity="0.8" d="M89.4488 224.431C87.5048 221.235 88.8223 218.556 91.4359 217.174C93.7903 215.943 96.8143 216.007 98.2831 219.334C99.9679 222.401 99.2767 225.403 96.4255 226.764C93.4231 228.211 91.1552 227.283 89.4488 224.431Z" fill="#2793F2" fill-opacity="0.2"/>
<path opacity="0.8" d="M140.576 52.668C139.345 50.076 140.165 47.592 142.693 46.2528C145.414 44.8056 148.006 45.6048 149.432 48.3048C150.879 51.048 149.799 53.3808 147.293 55.0872C144.399 56.0376 141.915 55.476 140.576 52.668Z" fill="#2793F2" fill-opacity="0.2"/>
<path opacity="0.8" d="M133.405 102.586C132.174 99.7129 132.778 97.5313 135.414 96.1057C138.135 94.6369 140.619 95.0041 142.088 97.8769C143.492 100.62 142.801 103.299 140.101 104.703C137.401 106.15 135.003 104.962 133.405 102.586Z" fill="#2793F2" fill-opacity="0.2"/>
<path opacity="0.8" d="M82.299 273.874C80.9598 270.936 82.2125 268.776 85.0421 267.523C87.7853 266.314 89.8589 267.242 91.4141 270.029C92.1917 272.642 91.7166 275.278 88.887 276.53C86.1438 277.74 83.595 276.682 82.299 273.874Z" fill="#2793F2" fill-opacity="0.2"/>
<path opacity="0.8" d="M126.169 152.287C124.916 149.091 125.91 146.952 128.761 145.678C131.482 144.446 133.75 145.181 135.003 147.859C136.321 150.646 135.565 153.302 132.8 154.62C130.035 155.916 127.659 154.707 126.169 152.287Z" fill="#2793F2" fill-opacity="0.2"/>
<path opacity="0.8" d="M46.1838 345.067C44.8014 342.475 45.5574 340.207 48.171 338.76C50.8926 337.27 53.2255 337.723 55.0183 340.639C56.0767 343.296 55.623 345.931 52.923 347.335C50.223 348.761 47.631 347.789 46.1838 345.067Z" fill="#2793F2" fill-opacity="0.2"/>
<path opacity="0.8" d="M148.395 2.1672C147.056 -0.7704 148.309 -2.93041 151.139 -4.18321C153.882 -5.39281 155.955 -4.4856 157.446 -1.8072C158.375 0.957599 157.813 3.5712 155.005 4.824C152.24 6.0336 149.691 4.9752 148.395 2.1672Z" fill="#2793F2" fill-opacity="0.2"/>
<path opacity="0.8" d="M118.955 202.356C117.313 199.526 117.896 197.215 120.596 195.941C122.691 194.947 125.197 194.904 126.169 197.777C127.703 200.434 127.746 202.594 124.787 204.127C122.238 205.466 120.445 204.926 118.955 202.356Z" fill="#2793F2" fill-opacity="0.2"/>
<path opacity="0.8" d="M10.6954 416.023C8.96736 413.475 10.3713 411.379 12.7041 410.256C15.1233 409.09 17.3266 409.759 18.5578 412.675C19.681 415.311 19.4001 417.147 16.7433 418.507C13.8705 419.998 12.013 419.004 10.6954 416.023Z" fill="#2793F2" fill-opacity="0.2"/>
<path opacity="0.8" d="M75.3006 322.668C74.199 320.875 75.3223 318.607 77.6335 317.419C79.8799 316.274 82.0831 317.117 83.3359 319.644C84.6103 322.214 84.3078 324.266 81.651 325.649C79.0158 327.031 77.115 326.124 75.3006 322.668Z" fill="#2793F2" fill-opacity="0.2"/>
<path opacity="0.8" d="M111.87 252.165C110.66 249.854 111.308 247.737 113.641 246.506C115.974 245.253 117.918 246.117 119.387 248.213C120.294 250.632 119.905 252.705 117.55 253.937C115.218 255.146 113.101 254.498 111.87 252.165Z" fill="#2793F2" fill-opacity="0.2"/>
<path opacity="0.8" d="M38.9266 394.985C37.501 392.566 38.6241 390.881 40.6113 389.542C42.9009 388.548 44.953 388.31 46.249 390.902C47.5018 393.386 46.9617 395.676 44.5641 396.929C42.3177 398.074 40.2226 397.188 38.9266 394.985Z" fill="#2793F2" fill-opacity="0.2"/>
<path opacity="0.8" d="M162.889 80.489C161.895 78.113 162.975 76.5794 165.049 75.521C167.338 74.3546 169.239 74.7218 170.837 77.573C171.377 79.5602 171.205 81.9578 168.613 83.0162C166.172 84.0314 163.99 83.1026 162.889 80.489Z" fill="#2793F2" fill-opacity="0.2"/>
<path opacity="0.8" d="M169.693 29.945C168.678 27.569 169.736 26.0354 171.81 24.977C174.099 23.8106 176 24.1346 177.469 26.7482C178.312 29.0162 177.944 31.3706 175.417 32.4506C173.019 33.4874 170.816 32.5586 169.693 29.945Z" fill="#2793F2" fill-opacity="0.2"/>
<path opacity="0.8" d="M147.985 180.562C146.84 178.121 148.006 176.631 150.577 175.421C152.456 174.384 154.249 174.968 155.307 177.257C156.387 179.59 155.782 181.858 153.471 182.895C151.203 183.888 149.108 182.96 147.985 180.562Z" fill="#2793F2" fill-opacity="0.2"/>
<path opacity="0.8" d="M155.329 131.184C154.335 129.002 155.026 126.886 157.186 125.849C159.541 124.726 161.744 125.525 162.759 127.922C163.666 130.104 162.738 132.005 160.599 133.301C158.396 133.798 156.344 133.43 155.329 131.184Z" fill="#2793F2" fill-opacity="0.2"/>
<path opacity="0.8" d="M104.547 301.738C103.208 299.729 103.489 297.85 105.713 296.683C107.96 295.495 109.493 296.424 110.617 298.671C111.697 300.831 111.589 302.278 109.234 303.444C106.988 304.589 105.497 304.2 104.547 301.738Z" fill="#2793F2" fill-opacity="0.2"/>
<path opacity="0.8" d="M68.5615 373.32C67.3951 371.031 67.7839 369.303 70.0951 368.266C72.5143 367.164 73.8318 368.482 74.8902 370.62C76.035 372.953 75.4087 374.335 73.1839 375.199C70.7647 376.603 69.5983 375.372 68.5615 373.32Z" fill="#2793F2" fill-opacity="0.2"/>
<path opacity="0.8" d="M141.375 230.134C140.425 228.19 140.792 226.483 142.585 225.446C144.593 224.302 146.321 224.993 147.445 227.066C148.568 229.14 148.244 230.998 146.149 232.056C144.053 233.114 142.412 232.272 141.375 230.134Z" fill="#2793F2" fill-opacity="0.2"/>
<path opacity="0.8" d="M184.424 108.547C183.301 106.43 184.532 105.48 186.109 104.616C187.901 103.73 189.521 103.363 190.537 105.761C191.379 107.748 191.077 109.519 189.219 110.448C187.189 111.528 185.547 110.642 184.424 108.547Z" fill="#2793F2" fill-opacity="0.2"/>
<path opacity="0.8" d="M133.124 279.684C132.066 278.064 133.686 277.07 135.392 276.206C137.055 275.364 138.546 275.213 139.496 277.351C140.446 279.49 140.122 281.347 138.006 282.298C136.105 283.162 134.485 282.276 133.124 279.684Z" fill="#2793F2" fill-opacity="0.2"/>
<path opacity="0.8" d="M192.503 58.6514C191.185 56.4482 192.308 55.3034 195.051 53.921C196.023 53.3594 197.579 53.3594 198.529 55.6706C199.328 57.6578 198.961 59.4074 197.082 60.3146C195.203 61.2434 193.604 60.4874 192.503 58.6514Z" fill="#2793F2" fill-opacity="0.2"/>
<path opacity="0.8" d="M200.214 9.25187C199.155 7.61027 199.674 5.96867 201.229 4.91027C202.892 3.76547 204.555 4.32707 205.419 5.96867C206.262 7.56707 205.722 9.16548 204.015 10.4615C202.676 10.8935 201.142 10.6991 200.214 9.25187Z" fill="#2793F2" fill-opacity="0.2"/>
<path opacity="0.8" d="M177.944 159.091C176.864 157.45 177.382 155.808 178.916 154.728C180.579 153.562 182.242 154.123 183.128 155.765C183.992 157.342 183.452 158.962 181.724 160.279C180.406 160.711 178.894 160.538 177.944 159.091Z" fill="#2793F2" fill-opacity="0.2"/>
<path opacity="0.8" d="M170.427 208.988C169.628 207.324 169.758 206.093 171.572 205.251C173.473 204.365 174.337 205.424 175.136 206.936C176 208.62 175.762 209.852 173.516 210.888C172.112 211.515 171.183 210.564 170.427 208.988Z" fill="#2793F2" fill-opacity="0.2"/>
<path opacity="0.8" d="M163.45 259.099C162.737 257.76 163.105 256.723 164.444 256.011C165.826 255.298 167.079 255.103 167.921 256.831C168.591 258.279 168.375 259.596 166.906 260.352C165.437 261.087 164.206 260.547 163.45 259.099Z" fill="#2793F2" fill-opacity="0.2"/>
<path opacity="0.8" d="M214.405 87.3363C213.584 85.6731 214.405 84.7659 215.83 84.0963C217.191 83.4483 218.228 83.7723 218.898 85.1547C219.632 86.6451 219.2 87.8115 217.861 88.7403C216.327 89.2155 215.139 88.8267 214.405 87.3363Z" fill="#2793F2" fill-opacity="0.2"/>
<path opacity="0.8" d="M206.909 136.26C206.369 135.353 207.557 134.834 208.486 134.359C209.393 133.884 210.603 133.106 211.294 134.532C211.921 135.85 212.007 137.426 210.43 138.161C209.134 138.809 208.054 137.945 206.909 136.26Z" fill="#2793F2" fill-opacity="0.2"/>
<path opacity="0.8" d="M221.489 36.9217C220.841 35.5393 222.159 35.0209 223.131 34.5889C224.081 34.1785 225.248 33.5305 225.788 35.1721C226.198 36.5113 226.198 37.8721 224.881 38.4985C223.347 39.2545 222.094 38.2177 221.489 36.9217Z" fill="#2793F2" fill-opacity="0.2"/>
<path opacity="0.8" d="M199.414 187.107C198.313 185.659 199.566 185.098 200.451 184.601C201.466 184.039 202.741 183.067 203.475 184.99C203.95 186.264 203.821 187.452 202.633 188.381C201.229 188.813 200.257 188.208 199.414 187.107Z" fill="#2793F2" fill-opacity="0.2"/>
</svg>
