<svg width="80" height="80" viewBox="0 0 80 80" fill="none" xmlns="http://www.w3.org/2000/svg">
<rect width="80" height="80" rx="10" fill="#FDE8E4"/>
<path d="M32.6514 23.3315C29.3982 23.3315 26.7139 25.7982 26.7139 28.9049V51.0915C26.7139 54.1982 29.3982 56.6648 32.6514 56.6648H47.443C50.6962 56.6648 53.3805 54.1982 53.3805 51.0915C53.3805 50.0032 53.3805 37.9948 53.3805 34.9465C53.3805 29.0082 47.6482 23.3315 41.7139 23.3315C34.69 23.3315 34.6742 23.3315 32.6514 23.3315ZM43.3805 27.0815C46.3129 27.8599 48.8439 30.3582 49.6305 33.2799C48.5257 33.2965 47.549 33.3415 46.7139 33.3315C44.2679 33.3015 43.3579 32.8249 43.3285 29.9982C43.3254 29.7065 43.3649 28.3815 43.3805 27.0815ZM33.3805 36.6649C34.301 36.6649 35.0472 37.4115 35.0472 38.3315V48.3315C35.0472 49.2515 34.301 49.9982 33.3805 49.9982C32.46 49.9982 31.7139 49.2515 31.7139 48.3315V38.3315C31.7139 37.4115 32.46 36.6649 33.3805 36.6649ZM40.0472 39.9982C40.9677 39.9982 41.7139 40.7449 41.7139 41.6649V48.3315C41.7139 49.2515 40.9677 49.9982 40.0472 49.9982C39.1267 49.9982 38.3805 49.2515 38.3805 48.3315V41.6649C38.3805 40.7449 39.1267 39.9982 40.0472 39.9982ZM46.7139 43.3315C47.6344 43.3315 48.3805 44.0782 48.3805 44.9982V48.3315C48.3805 49.2515 47.6344 49.9982 46.7139 49.9982C45.7934 49.9982 45.0472 49.2515 45.0472 48.3315V44.9982C45.0472 44.0782 45.7934 43.3315 46.7139 43.3315Z" fill="#F06449"/>
</svg>
