<svg width="321" height="95" viewBox="0 0 321 95" fill="none" xmlns="http://www.w3.org/2000/svg">
<path d="M0.653337 82.8377C2.33457 82.9364 2.95398 82.3319 3.4495 81.53C3.73266 81.0735 4.06891 80.617 4.51134 80.2222C4.95378 79.8151 4.33438 79.7164 4.10432 79.519C3.53801 79.0378 2.65314 79.1488 1.85676 79.0625C1.6267 79.0378 1.44973 78.8527 1.25506 78.7417C1.37894 78.68 1.48511 78.5813 1.62669 78.5443C2.51155 78.3099 3.41411 78.1249 4.28127 77.8658C5.75014 77.434 5.94483 76.41 6.81199 75.6944C7.18363 75.386 6.635 74.9542 6.21026 74.6334C5.87402 74.3743 5.89173 73.9672 6.33416 73.8561C7.3252 73.6094 7.69684 73.1529 8.21006 72.6224C9.05952 71.7465 10.4045 71.1173 12.0504 70.8582C15.1474 70.3647 17.9789 69.3036 21.3237 69.3283C21.9254 69.3283 22.5094 69.0569 23.1288 68.9459C24.6685 68.6744 26.2258 68.2056 27.7655 68.218C29.4998 68.2303 30.8448 67.4777 32.473 67.5764C34.1896 67.6751 35.4107 66.7252 37.1273 66.8362C37.4459 66.8609 37.7644 66.2687 37.6051 66.0836C37.3928 65.8245 37.1627 65.7875 36.8442 65.9849C36.2071 66.392 35.623 65.8369 35.2514 65.8985C34.5081 66.0096 33.9064 66.3674 33.0039 66.355C30.6855 66.3057 28.3849 66.3427 26.0665 66.3304C25.7657 66.3304 25.4471 66.244 25.164 66.17C25.0401 66.133 24.8808 66.0343 24.8808 65.9603C24.8808 65.7629 24.8632 65.4667 25.0401 65.4051C26.0312 65.0843 27.0222 64.6402 28.084 64.5661C29.3228 64.4921 30.1369 63.9616 31.2518 63.7765C31.9597 63.6531 31.8358 63.1227 31.712 62.7155C31.6235 62.3824 31.2695 62.148 30.7563 62.1357C29.2698 62.0987 27.7832 62.074 26.3143 62.1357C24.7039 62.1974 23.3412 62.8512 21.6069 62.8019C20.9875 62.7772 20.315 63.3571 19.6602 63.6532C19.554 63.7025 19.2708 63.7519 19.2708 63.7395C19.1292 63.5668 18.9346 63.3941 18.9169 63.209C18.8815 62.7032 18.8815 62.148 20.0495 62.1233C21.5361 62.0863 22.651 61.3091 24.2614 61.4324C25.7126 61.5435 26.8983 60.7416 28.4911 60.8279C29.5883 60.8896 30.0307 60.4208 29.5529 59.8779C29.1636 59.4214 28.9335 58.9773 28.7211 58.4838C28.3672 57.6079 27.3054 57.2008 25.8365 57.2131C25.8542 57.2254 25.8542 57.2378 25.8719 57.2501C25.8542 57.2501 25.8188 57.2501 25.8011 57.2501C25.8011 57.4352 25.8365 57.6325 25.7657 57.8053C25.6949 57.978 25.4648 58.1384 25.3233 58.2987C25.1817 58.126 24.9693 57.978 24.8985 57.7929C24.8278 57.6202 24.8631 57.4352 24.8808 57.2501C24.8454 57.2501 24.81 57.2501 24.7923 57.2501C24.7923 57.2254 24.8101 57.2131 24.8101 57.1884C24.0137 57.1761 23.1996 57.1761 22.7041 57.6449C22.3501 57.9656 22.1201 58.3358 21.8015 58.6689C21.4299 59.039 20.5981 59.113 20.1734 58.8293C19.7487 58.5455 19.3416 58.2371 18.9877 57.9163C18.1913 57.1884 17.5011 57.0034 15.7845 57.2501C14.7934 57.3982 14.935 57.9286 14.8996 58.3851C13.8909 58.2494 13.2361 57.8793 12.9883 57.2624C12.7759 56.7566 13.006 56.2878 13.5369 55.856C14.0148 55.4612 14.351 55.0047 14.8111 54.5975C14.9704 54.4618 15.4659 54.3015 15.5544 54.3385C16.7932 55.017 17.7665 54.2521 18.5452 53.993C19.8017 53.5736 20.8105 52.932 22.3855 52.7963C23.0934 52.7346 22.8103 52.1301 22.9342 51.76C24.2968 51.3282 25.2702 50.5262 26.7921 50.2055C27.27 50.1068 27.8894 49.7983 27.8186 49.3295C27.1815 49.1445 26.5444 48.9594 25.8896 48.7743C25.8719 48.8607 25.8542 48.9471 25.7657 48.9717C24.0845 49.5022 22.1378 49.6626 20.5627 50.3535C20.2619 50.4769 19.8194 50.1068 19.9433 49.7737C20.3858 48.614 20.899 47.553 22.8633 46.8744C26.5798 45.5913 30.6501 45.0731 34.7028 44.4933C36.2601 44.2712 37.8352 44.4069 39.4633 43.9628C40.8437 43.5803 42.7019 43.8394 44.3478 43.8024C44.6663 43.7901 45.0734 43.7901 45.268 43.679C46.383 43.0622 47.8872 43.4816 49.0021 43.1485C50.0817 42.8277 51.1435 42.4947 52.2407 42.6797C53.5503 42.9141 54.4883 42.0752 55.851 42.4083C56.3819 42.5317 57.2844 42.1862 57.9392 41.9765C58.6294 41.7668 58.4525 41.2979 58.5233 40.9155C58.6117 40.422 59.0896 40.2369 59.8328 40.2246C62.1335 40.1999 64.4518 40.1999 66.7524 40.1629C67.5665 40.1506 68.5045 40.2123 69.1416 39.9778C70.2388 39.5831 71.3537 39.6694 72.4864 39.6447C75.6188 39.6077 78.7689 39.4597 81.8659 39.6201C85.1929 39.7804 88.2369 38.8305 91.5286 38.9908C91.6878 39.0032 91.8825 38.7688 92.0595 38.6454C91.9356 38.5837 91.794 38.4727 91.6701 38.4727C90.8561 38.4357 90.042 38.411 89.2279 38.411C82.6445 38.411 76.0435 38.374 69.4601 38.4233C67.2126 38.4357 64.8943 38.1272 62.6998 38.8675C62.222 39.0278 61.2309 38.5097 60.4699 38.4973C59.532 38.485 58.7887 38.9785 57.7092 38.9662C53.922 38.9168 50.1348 38.9538 46.3476 38.9785C45.3919 38.9785 45.038 38.7071 44.5778 38.2013C44.1708 37.7571 43.0382 37.5721 42.2418 37.276C41.2331 38.0656 40.1535 36.8565 39.251 37.276C37.7644 37.9792 36.1009 37.6954 34.5081 37.7818C33.0569 37.8558 31.5881 37.6214 30.2431 38.2259C29.8361 38.411 28.9512 38.337 28.3672 38.2136C27.4646 38.0162 26.4382 37.7941 25.8011 37.387C24.5977 36.6097 23.5359 36.3753 22.0139 37.0786C21.6599 37.2389 20.6689 37.1032 20.1911 36.8935C19.4832 36.5851 18.7576 36.5234 17.9612 36.5111C17.8728 36.2026 17.5719 35.9435 17.1295 35.9682C14.4218 36.0546 11.6433 35.6474 9.04183 36.4617C8.38703 36.6714 7.8915 36.2026 7.48446 35.9065C7.2721 35.7585 7.13054 35.7708 7.05975 35.7955C7.09514 35.7831 7.13053 35.7585 7.21902 35.6844C7.89151 35.1416 8.68789 34.6358 9.57275 34.241C10.1214 33.9942 10.7231 34.4137 11.3071 34.5371C12.6875 34.8332 14.1386 34.8085 15.5544 34.5741C15.7491 34.5371 15.8376 34.315 15.9614 34.1546C16.4393 34.1423 16.9171 34.13 17.3772 34.1176C18.6337 34.0806 18.8461 33.9449 18.9346 33.3033C19.0231 32.6248 18.8107 32.4274 17.7312 32.304C17.4126 32.267 17.0587 32.3164 16.7578 32.267C16.2977 32.1807 15.8729 32.0573 16.0322 31.6625C16.1561 31.3294 16.4746 31.1566 17.0233 31.132C18.1559 31.0703 19.4655 31.2183 20.3858 30.9222C21.8015 30.4657 23.2173 30.4287 24.6508 30.5027C26.332 30.5891 27.5885 29.7255 29.3405 29.8859C30.774 30.0093 32.4199 30.108 33.7118 29.7995C35.2514 29.4294 36.7734 29.2937 38.3484 29.121C38.5077 29.1086 38.5962 28.8619 38.7024 28.7015C35.623 28.6892 32.526 28.6768 29.4467 28.6645C28.4734 28.6645 27.5885 28.7879 26.6329 28.9976C24.6508 29.4294 22.4563 29.4294 20.4034 29.121C19.6779 29.0099 19.0585 28.6275 18.1736 28.6768C15.4482 28.8002 12.6344 28.3684 10.0152 29.232C9.50196 29.4047 8.72327 29.306 8.06848 29.2814C7.78532 29.269 7.51988 29.1086 7.25442 29.0099C7.48448 28.8989 7.67915 28.7509 7.94461 28.6768C10.2983 28.0106 12.829 27.7639 15.342 27.4801C16.457 27.3568 17.6427 27.4678 18.793 27.4061C19.2354 27.3814 19.6956 27.2087 20.0849 27.0607C20.3327 26.962 20.5627 26.7646 20.6335 26.5918C20.6689 26.5302 20.2619 26.3081 20.0141 26.2957C19.2 26.234 18.386 26.234 17.5719 26.1847C17.4303 26.1723 17.2887 26.0737 17.2002 25.9996C17.1825 25.975 17.3064 25.8639 17.3949 25.8269C18.2267 25.4938 19.2531 25.6789 20.138 25.2964C21.7484 24.5932 23.6774 24.2724 25.6595 24.4575C28.668 24.7289 31.358 23.8159 34.2427 23.7419C34.3666 23.7419 34.4904 23.6186 34.632 23.5569C34.5435 23.4952 34.4727 23.3965 34.3489 23.3718C34.048 23.3101 33.7295 23.2114 33.4463 23.2237C29.9069 23.3841 26.2435 22.7302 22.8457 23.7912C21.2175 23.7912 19.5894 23.7913 17.9789 23.8036C17.8197 23.4458 17.5011 23.1867 16.7755 23.1991C16.2092 23.2114 15.6252 23.1991 15.0589 23.1867C15.0943 22.903 15.3597 22.7056 15.8022 22.6686C16.8463 22.6069 17.9081 22.6069 18.97 22.5822C19.2708 22.2491 19.8725 21.7679 19.7132 21.6569C19.0054 21.1387 19.1115 20.5342 18.8815 19.9667C18.8107 19.8063 17.9612 19.5842 17.6958 19.6706C16.8109 19.9543 15.9615 20.2258 14.9173 20.1518C12.245 19.979 9.89129 20.818 7.3252 20.9907C6.93586 21.0154 6.61731 21.4472 6.13949 21.0277C5.92712 20.8303 6.40495 20.3738 7.05975 20.1518C8.21007 19.757 9.37807 19.4855 10.7761 19.5349C12.068 19.5842 13.3777 19.4979 14.6696 19.3745C15.0589 19.3375 15.5544 19.0167 15.6783 18.77C15.7668 18.5973 15.3951 18.2518 15.0766 18.0914C14.4749 17.7953 13.7316 17.6103 13.1122 17.3265C12.9883 17.2648 13.0768 16.833 13.2361 16.796C14.1032 16.5739 15.1297 16.5122 15.9084 16.2161C17.9258 15.4512 20.0849 15.2168 22.3855 15.3032C23.0403 15.3278 23.7128 15.2538 24.3676 15.2785C26.2789 15.3525 27.9956 14.9454 29.1813 14.1064C30.5617 13.1195 32.4906 12.9097 34.225 12.4286C35.3222 12.1325 36.7734 12.3175 37.1804 11.2689C37.2866 10.9974 38.2599 11.9227 38.6316 11.3306C39.9766 9.18386 43.2505 8.72739 46.2237 8.08585C47.2501 7.86377 48.3473 7.74039 49.4092 7.49364C50.5772 7.22222 52.0107 7.41963 53.3203 7.40729C54.2936 7.39495 55.1962 6.65471 56.258 7.28391C56.8774 6.9508 57.4968 6.63003 58.1162 6.29692C58.8418 6.7534 59.4612 6.60535 60.1868 6.25991C60.6823 6.0255 61.5849 5.68006 61.8857 5.80343C63.0714 6.25991 63.9563 5.5937 64.9827 5.63071C67.832 5.74175 70.2919 4.93982 72.858 4.35997C73.2827 4.26127 73.3535 4.08854 73.1235 3.96517C72.9996 3.89114 72.8757 3.79244 72.7341 3.79244C70.752 3.79244 68.6991 3.59506 66.8232 3.87881C65.1243 4.1379 63.3723 4.3353 61.7087 4.65607C59.4258 5.10022 56.9128 5.18657 54.9484 6.17356C54.6476 6.33394 53.9751 6.27226 53.4972 6.23525C53.2495 6.21057 53.0371 6.0255 52.8248 5.91446C54.1166 5.03851 55.1962 4.06387 57.3375 3.7431C59.0719 3.48402 60.8416 3.33597 62.5051 3.05222C64.2572 2.75612 65.9561 2.55871 67.7435 2.55871C68.5576 2.55871 69.4955 2.59573 70.1326 2.37366C71.2299 1.97886 72.3271 2.04054 73.4597 2.01587C75.8665 1.95418 78.3264 2.20094 80.6271 1.43603C81.1403 1.26331 81.9367 1.36199 82.5738 1.399C82.7861 1.41134 82.9631 1.60875 83.1755 1.71978C83.0516 1.78147 82.8923 1.91717 82.7861 1.90483C81.3703 1.75679 80.3793 2.41066 79.1759 2.63273C78.9989 2.66974 78.8927 2.86715 78.7689 2.99052C79.052 3.05221 79.3352 3.16325 79.636 3.18793C80.1315 3.22494 80.7156 3.29895 81.1049 3.17558C83.2286 2.46001 85.5292 2.59573 87.7944 2.57106C88.7501 2.55872 89.3341 2.423 89.4049 1.76912C89.4403 1.51004 89.8119 1.44836 90.0774 1.60875C90.6968 1.99121 91.4578 2.04054 92.2718 1.97886C92.2895 1.68276 92.201 1.34966 92.4311 1.13993C92.6435 0.942529 93.2275 0.856162 93.6699 0.806813C94.1478 0.745126 94.6609 0.79447 95.1388 0.782133C99.0853 0.757458 103.032 0.67111 106.978 0.757472C108.129 0.782146 109.19 0.0419104 110.111 0.510729C111.279 1.10292 112.164 0.0418984 113.19 0.498379C114.199 0.954861 115.42 0.720448 116.535 0.745122C118.676 0.794472 120.817 0.78215 122.941 0.819162C123.578 0.831499 124.339 0.80681 124.799 1.01654C125.507 1.33732 125.861 1.10292 126.445 0.954873C126.905 0.843837 127.419 1.46069 128.073 1.05356C128.746 0.634086 129.383 1.53472 130.179 1.04122C130.94 0.584744 132.055 0.856162 133.029 0.806813C133.843 0.769801 134.674 0.769802 135.488 0.769802C137.63 0.757465 139.753 0.757466 141.895 0.732792C142.709 0.720454 143.735 0.8685 144.302 0.634091C145.983 -0.0814741 147.788 0.214633 149.54 0.202296C151.487 0.189958 153.451 0.288658 155.415 0.338007C156.194 1.0289 157.592 -0.130826 158.336 0.708112C159.486 0.745124 160.654 0.868494 161.769 0.782133C163.043 0.683434 163.839 1.30031 164.99 1.34966C166.742 1.42368 168.476 1.23862 170.228 1.83081C171.697 2.32431 173.821 1.70744 175.307 2.55871C177.254 2.5217 179.218 2.50937 181.165 2.44768C181.307 2.44768 181.43 2.20094 181.554 2.02821C181.873 2.01588 182.209 1.99119 182.528 1.97886C182.687 1.51004 183.324 1.30032 183.908 1.47304C184.651 1.69511 185.094 1.81849 185.996 1.57174C186.722 1.37434 187.447 0.757463 188.492 1.11525C189.518 1.47303 190.173 0.806822 191.075 0.720461C193.093 0.523064 195.004 -0.241862 197.075 0.708112C197.517 0.905509 198.349 0.769795 199.004 0.782133C200.49 0.806807 201.977 0.806811 203.446 0.843823C203.924 0.85616 204.26 1.05357 204.348 1.37434C204.808 1.38668 205.286 1.41134 205.746 1.38667C207.392 1.30031 208.843 1.6951 210.401 1.94184C211.604 2.1269 212.401 2.47235 213.303 2.89182C214.294 3.36064 215.356 3.34831 216.436 2.87949C217.497 2.41068 218.311 2.76846 218.188 3.53337C218.134 3.82947 218.205 4.13789 218.223 4.43399C218.258 4.79177 218.648 4.9645 219.143 5.00152C219.957 5.05086 220.771 5.02619 221.585 5.03853C223.391 5.05086 225.231 4.9028 226.965 5.12488C228.647 5.34695 230.222 5.92681 231.761 6.4203C232.505 6.65471 233.266 6.74107 234.009 6.90145C235.973 7.29625 237.938 7.72805 239.743 8.32024C240.822 8.67802 241.884 8.64101 242.981 8.72737C243.07 9.02347 243.371 9.20853 243.848 9.27022C244.326 9.33191 244.822 9.30724 245.3 9.35659C245.441 9.36893 245.547 9.47996 245.671 9.54164C245.494 9.66502 245.353 9.83774 245.14 9.87475C244.84 9.93644 244.486 9.88708 244.167 9.9241C243.866 9.96111 243.583 10.0598 243.282 10.1215C243.406 10.2449 243.495 10.4299 243.672 10.4793C245.14 10.8741 246.609 11.2812 248.291 11.1825C248.414 11.1702 248.556 11.2935 248.68 11.3552C248.503 11.4663 248.379 11.6637 248.167 11.7007C246.627 11.9351 244.45 11.0591 243.672 12.6753C243.618 12.7864 243.123 12.848 242.822 12.8727C242.327 12.9097 241.831 12.9097 241.353 12.8851C238.787 12.774 236.133 13.2675 233.637 12.5026C233.443 12.4409 232.894 12.7987 232.54 12.9838C232.168 13.1688 232.168 13.3662 232.558 13.4032C233.991 13.5389 235.602 13.4279 236.823 13.798C238.292 14.2545 239.725 13.9954 241.123 14.1928C241.601 14.2545 241.92 14.4149 241.955 14.7233C237.938 14.637 233.903 15.0811 229.903 14.2422C227.549 13.7487 225.125 14.5012 222.789 14.822C221.957 14.9331 222.612 15.2662 222.842 15.4512C223.143 15.698 223.603 15.8707 223.833 16.1174C224.258 16.5986 223.55 16.5246 223.143 16.5616C222.86 16.5863 222.576 16.5863 222.293 16.5986C222.417 16.759 222.523 17.0057 222.665 17.0181C223.798 17.1168 224.983 17.2895 226.081 17.1661C227.249 17.0304 228.045 17.8817 229.178 17.4746C229.797 17.2525 230.045 17.4252 230.045 17.7706C230.045 17.931 229.832 18.2024 229.62 18.2394C229.018 18.3628 228.363 18.3752 227.744 18.4615C227.602 18.4739 227.461 18.5726 227.39 18.6589C227.355 18.6836 227.514 18.8317 227.602 18.844C228.399 18.918 229.195 18.9674 229.992 19.0537C230.292 19.0907 230.841 19.2264 230.823 19.2635C230.717 19.5842 230.257 19.6089 229.797 19.6089C227.815 19.6212 225.85 19.6336 223.868 19.6706C223.744 19.6706 223.603 19.794 223.479 19.8557C223.656 19.9667 223.815 20.1888 223.992 20.1888C225.957 20.1888 227.585 20.966 229.673 20.855C232.947 20.6823 236.274 20.8303 239.566 20.8673C240.008 20.8673 240.84 21.04 240.84 21.1387C240.84 22.1504 242.397 22.0393 243.229 22.4095C244.22 22.8536 245.459 22.6069 246.592 22.6562C247.406 22.6932 248.237 22.6686 249.069 22.6686C249.724 22.6686 250.396 22.6562 251.051 22.7056C251.281 22.7179 251.476 22.8906 251.706 23.0017C251.494 23.1621 251.299 23.3101 251.087 23.4705C250.485 23.927 249.635 23.8653 248.821 23.8653C240.911 23.8653 232.982 23.9023 225.072 23.8529C222.063 23.8406 219.426 24.5068 216.772 25.1854C216.63 25.2224 216.542 25.3211 216.436 25.3951C216.559 25.4568 216.666 25.5432 216.807 25.5925C216.931 25.6419 217.09 25.6789 217.25 25.6912C217.727 25.7282 218.223 25.7406 218.683 25.7899C218.825 25.8023 218.931 25.9133 219.072 25.975C218.984 26.0367 218.895 26.1477 218.789 26.16C217.993 26.2217 217.197 26.3081 216.382 26.3081C215.161 26.2957 215.498 27.0483 214.914 27.3321C214.807 27.3814 214.4 27.221 214.135 27.1593C213.852 27.0853 213.427 26.9126 213.285 26.9743C211.693 27.6528 209.87 27.5295 208.1 27.5788C207.941 27.5788 207.782 27.8009 207.64 27.9119C207.764 27.9736 207.905 28.0846 208.029 28.0846C209.18 28.1217 210.56 27.8996 211.445 28.2204C213.002 28.7632 214.577 28.8125 216.188 28.7385C218.541 28.6275 220.647 29.1703 222.824 29.5281C223.585 29.6515 224.382 29.8242 225.089 30.0093C227.585 30.6508 230.027 30.9469 232.575 30.145C232.982 30.0216 233.513 30.0093 233.991 29.9969C235.637 29.9722 237.301 29.8736 238.929 29.9846C240.645 30.108 242.043 29.4294 243.654 29.4047C245.954 29.3677 248.273 29.3924 250.573 29.4294C250.963 29.4294 251.352 29.6145 251.724 29.7132C251.423 29.7872 251.14 29.9106 250.839 29.9229C248.857 29.9599 246.875 29.9599 244.91 30.0093C244.663 30.0093 244.433 30.2066 244.185 30.3053C244.309 30.3794 244.415 30.4781 244.556 30.5027C245.954 30.7248 247.14 31.3047 248.715 31.206C249.989 31.1196 251.228 31.4034 252.502 31.6131C254.201 31.8846 255.936 32.341 257.652 32.3287C260.785 32.304 263.669 33.3157 266.819 33.0566C268.271 33.6364 269.916 33.6241 271.545 33.6364C272.288 33.6488 272.748 33.9079 273.244 34.1546C273.721 34.389 274.217 34.5988 274.712 34.8085C274.854 35.5734 276.27 35.3637 276.854 35.8325C277.279 36.1779 277.473 36.3507 277.066 36.7948C276.5 37.424 276.872 37.7695 277.827 37.8435C278.641 37.8928 279.455 37.9175 280.234 38.0039C280.393 38.0285 280.482 38.2506 280.606 38.411C278.836 38.3986 276.96 38.6084 275.367 38.2753C273.598 37.9052 271.739 37.5721 270.04 37.0416C268.642 36.5974 267.05 36.1286 265.545 36.1409C263.192 36.1533 261.174 35.4747 258.891 35.3513C256.537 35.228 254.148 34.8702 251.954 34.241C250.273 34.4384 248.698 33.5131 246.928 34.1299C246.432 34.3026 245.601 34.2163 244.981 34.1299C244.114 34.0066 243.318 33.5871 242.397 34.0312C241.318 33.3774 240.344 33.7351 239.336 34.1299C239.141 34.2039 238.681 34.13 238.415 34.0436C236.575 33.3404 234.593 33.7475 232.682 33.7352C232.186 33.7352 232.168 33.9079 232.522 34.1423C232.823 34.3397 233.142 34.6481 232.416 34.7715C231.584 34.9072 230.416 34.5987 230.115 35.4007C229.301 35.4624 228.54 35.413 227.903 35.0306C227.638 34.8702 227.319 34.9318 227.231 35.2033C227.178 35.376 227.213 35.6598 227.39 35.7585C227.744 35.9435 228.31 35.9559 228.664 36.1409C230.753 37.2513 230.735 37.276 231.549 37.2636C233.69 37.2513 235.832 37.2266 237.991 37.2019C238.84 37.1896 239.106 36.8565 239.053 36.4123C238.999 35.8201 239.283 35.4377 240.362 35.4377C242.008 35.4377 243.654 35.4253 245.317 35.4377C245.441 35.4377 245.689 35.5981 245.671 35.6228C245.583 35.7585 245.424 35.9682 245.282 35.9682C243.795 36.0176 242.309 36.0175 240.822 36.0669C240.645 36.0792 240.451 36.2766 240.327 36.4123C240.291 36.4494 240.468 36.5851 240.574 36.6591C241.017 36.9429 241.406 37.276 242.167 37.3006C242.362 37.3006 242.539 37.498 242.734 37.6091C242.592 37.6707 242.468 37.7695 242.327 37.7818C241.512 37.8188 240.663 37.9051 239.867 37.8311C238.469 37.7201 237.619 38.6084 236.168 38.485C234.876 38.374 233.513 38.411 232.221 38.5344C231.301 38.6207 230.452 38.9662 229.567 39.2006C229.461 39.2253 229.301 39.361 229.319 39.3856C229.408 39.4597 229.549 39.5707 229.691 39.5707C231.779 39.6817 233.62 40.422 235.849 40.2863C238.132 40.1382 240.468 40.2616 242.769 40.2739C243.601 40.2739 244.61 40.1012 245.211 40.3356C247.193 41.1252 249.37 40.7427 251.441 40.8908C252.095 40.9401 252.98 40.8044 253.352 41.0142C254.821 41.8531 256.856 41.2362 258.449 41.9148C259.723 42.4576 261.599 41.9271 263.174 42.4576C264.784 43.0005 266.731 42.6304 268.518 42.7537C268.979 42.7908 269.474 42.9018 269.863 43.0498C270.784 43.4199 271.792 43.2102 272.748 43.3089C273.721 43.4076 274.288 44.0368 275.438 43.9381C277.456 43.7654 279.208 44.2959 280.906 44.8881C282.322 45.3692 283.72 46.0601 285.225 46.1835C287.012 46.3316 288.64 46.9114 290.357 46.8991C292.073 46.8867 293.454 47.4296 295.047 47.5283C296.356 47.6146 297.719 47.664 298.993 47.5283C300.621 47.3556 301.718 48.2315 303.223 48.1328C305.258 48.0094 306.974 48.725 308.886 48.9101C309.063 48.9224 309.222 49.2062 309.293 49.3789C309.434 49.6873 308.957 49.9711 308.408 49.897C307.824 49.823 307.081 49.5146 306.709 49.6503C305.948 49.9094 305.576 49.6873 305.028 49.4899C304.621 49.3419 304.108 49.2925 303.701 49.5639C303.223 49.8724 302.586 50.1191 301.966 49.823C300.957 49.3419 299.825 49.3542 298.692 49.3912C298.409 49.4035 297.86 49.5516 297.878 49.6009C297.949 49.9464 298.462 49.9341 298.887 49.9958C299.028 50.0204 299.241 50.1685 299.223 50.1932C299.082 50.3289 298.905 50.5386 298.71 50.5509C297.896 50.6003 297.064 50.5756 296.25 50.6126C296.126 50.6126 295.878 50.773 295.896 50.7977C295.984 50.9334 296.232 51.1801 296.285 51.1678C297.754 50.8717 298.639 51.834 299.984 51.8093C302.002 51.76 304.019 51.6983 304.692 53.3021C304.762 53.4872 305.506 53.5612 305.93 53.7093C307.594 54.3138 309.257 54.9183 310.886 55.5475C311.629 55.8436 310.886 56.0781 310.638 56.2014C310.16 56.4358 309.541 56.5715 308.992 56.7443C308.638 56.8553 308.673 56.991 309.01 57.2007C309.611 57.5709 310.195 57.8669 311.133 57.8423C312.797 57.7929 312.779 57.8176 313.505 58.6936C313.717 58.9526 314.106 59.1747 314.425 59.3968C314.637 59.5448 314.885 59.6929 315.08 59.8533C315.151 59.9149 315.186 60.063 315.168 60.0753C314.867 60.137 314.478 60.2851 314.283 60.2234C313.399 59.9396 312.708 59.989 311.7 60.2111C309.31 60.7292 312 61.2227 311.593 61.7902C311.293 62.2097 311.293 62.5675 310.16 62.7279C310.001 62.7526 309.824 62.7279 309.664 62.7525C309.364 62.8142 309.08 62.8882 308.78 62.9623C308.957 63.0733 309.098 63.2707 309.293 63.283C310.107 63.3447 310.85 63.3817 311.629 63.6655C312.779 64.0973 314.089 64.1096 315.328 63.7025C315.735 63.5668 316.266 63.3324 316.354 63.7519C316.513 64.5661 317.876 64.8252 318.212 65.4791C318.407 65.8245 318.407 66.3057 318.159 66.6388C317.805 67.0829 317.133 66.9226 316.478 66.7375C315.912 66.5648 315.257 66.4167 314.637 66.4044C313.505 66.3797 313.487 65.8615 313.169 65.4174C313.08 65.294 312.708 65.2323 312.443 65.146C312.071 64.3194 310.992 64.5785 310.107 64.6155C309.647 64.6402 309.629 64.8129 309.859 65.0226C310.107 65.257 310.337 65.5408 310.355 65.8122C310.39 66.1577 309.895 66.2687 309.434 66.392C309.169 66.4661 308.196 66.4907 309.01 66.8979C309.487 67.1323 310.142 67.2433 310.691 67.4407C311.24 67.6381 311.647 68.3167 311.346 68.4524C310.992 68.6128 310.532 68.7115 310.089 68.7608C308.479 68.9829 308.39 69.0322 308.39 69.8342C308.39 70.1302 308.373 70.4387 308.479 70.7348C308.55 70.9075 308.868 71.2036 309.01 71.1789C311.169 70.9075 311.487 72.1906 312.62 72.7704C312.903 72.9185 313.133 72.9432 313.399 72.7211C314.089 72.1289 314.549 73.2763 315.345 72.7951C316.319 72.1906 316.566 73.0665 317.15 73.2393C317.575 73.3626 317.947 73.5107 318.354 73.6587C318.513 74.1276 319.221 74.1399 319.752 74.3496C320.07 74.473 320.194 74.8555 320.247 75.1269C320.265 75.2256 319.805 75.46 319.575 75.46C318.088 75.4723 316.389 75.7067 315.168 75.3489C313.399 74.8184 311.647 74.9295 309.877 74.8431C308.886 74.7938 307.912 74.8555 307.063 74.4483C307.01 74.4237 306.727 74.4853 306.709 74.5347C306.621 74.7197 306.479 74.9418 306.585 75.0899C306.798 75.3613 307.116 75.6204 307.488 75.8054C308.319 76.2002 308.125 76.521 307.612 77.0145C307.275 77.3353 307.594 77.7794 308.426 77.9028C308.727 77.9521 308.992 78.0878 309.257 78.1989C308.992 78.2976 308.727 78.4579 308.443 78.4703C307.47 78.532 306.55 78.458 306.39 79.3709C306.32 79.7657 305.293 80.0865 304.762 80.4689C304.178 80.8884 303.754 80.617 303.134 80.4813C301.63 80.1605 300.073 79.9138 298.497 79.7657C297.878 79.704 296.126 79.4079 297.259 80.5676C297.294 80.6047 296.922 80.8761 296.728 80.8884C296.073 80.9377 295.401 80.9007 294.746 80.9378C294.463 80.9501 293.949 81.0734 293.932 81.1598C293.896 81.5299 294.463 81.4806 294.852 81.5793C295.454 81.7274 295.365 82.0481 294.816 82.0975C294.091 82.1591 293.365 82.3442 293.224 82.6897C292.764 83.8494 291.012 84.0221 289.737 84.5526C289.348 84.7253 288.906 84.8364 288.499 84.9967C287.897 85.2311 288.056 85.4409 289.047 85.8727C289.897 86.2551 288.959 86.2551 288.711 86.3662C288.375 86.5019 287.561 86.4155 288.145 86.8967C288.463 87.1558 288.587 87.3778 288.162 87.6493C287.26 88.2168 286.18 88.3525 285.012 88.0441C284.428 87.8837 283.968 87.5629 283.614 88.2291C283.437 88.5869 282.906 88.8953 282.428 89.1544C280.676 90.1044 280.659 90.0921 281.88 91.0544C282.075 91.2148 282.322 91.3505 282.517 91.5232C282.889 91.8563 282.464 92.4115 281.809 92.4361C280.836 92.4608 279.721 92.6829 278.942 92.2634C277.88 91.6836 276.995 92.7446 276.323 92.3498C274.854 91.4985 272.819 92.103 271.226 91.4368C270.394 91.0914 268.996 91.2888 267.864 91.1901C266.766 91.0914 265.917 90.4992 264.643 90.6102C263.51 90.6966 262.289 90.4745 261.192 90.6349C259.9 90.82 258.891 90.0057 257.652 90.4005C257.316 90.5115 257.139 90.4745 256.944 90.2154C256.75 89.9564 256.573 89.5492 256.254 89.4875C255.511 89.3395 254.626 89.4752 253.918 89.1174C253.069 88.6979 252.007 88.92 251.069 88.7843C250.308 88.6733 249.618 88.3772 248.839 88.2538C248.202 88.1427 247.6 88.2661 246.999 88.5005C245.831 88.9694 244.344 89.0681 243.318 88.5869C242.185 88.0564 240.681 88.4882 239.69 87.7973C239.159 87.4395 238.469 87.6616 237.955 87.9207C237.601 88.1057 237.283 88.1428 237.23 87.896C236.858 86.3785 234.965 86.3168 233.142 86.3785C231.885 86.4155 231.036 85.8357 229.903 85.7987C228.576 85.7617 227.266 85.774 225.939 85.7617C225.337 85.7493 225.072 85.0708 224.311 85.4286C223.249 85.9344 222.205 85.885 221.143 85.4409C220.541 85.1941 219.94 85.0954 219.373 85.4162C218.683 85.7987 217.834 85.7617 217.037 85.7246C216.418 85.7 215.675 85.6383 215.214 85.4162C214.453 85.0461 213.905 85.9714 213.126 85.4286C212.507 84.9967 212.1 85.7246 211.48 85.7123C211.321 85.7123 211.073 85.7616 211.002 85.7123C209.834 84.9844 208.065 85.4409 206.879 85.0091C205.304 84.4292 203.694 84.6019 202.101 84.4909C201.959 84.4786 201.8 84.4045 201.694 84.3429C200.402 83.652 198.862 83.9851 197.429 83.9481C195.96 84.6883 194.066 84.5526 192.385 84.8734C186.934 85.9097 183.589 86.6006 179.661 86.3539C178.687 86.2922 177.679 86.3785 176.688 86.3662C175.838 86.3538 175.113 86.6499 174.369 86.724C171.679 86.9954 169.131 87.7973 166.282 87.5876C164.972 87.4889 163.645 87.5629 162.317 87.5876C160.866 87.6123 159.486 87.5753 158.035 88.0564C156.991 88.4019 155.451 88.1674 154.141 88.2291C153.681 88.2538 153.186 88.3648 152.796 88.5129C151.575 88.994 150.177 88.5992 148.956 88.8583C147.593 89.1421 146.337 89.6232 144.992 89.9563C144.567 90.0674 144.018 89.981 143.523 89.9933C142.868 90.0057 142.09 89.9193 141.576 90.0921C140.338 90.5115 139.311 90.9803 138.656 89.6973C138.444 89.3025 137.4 89.3888 136.851 89.4999C135.789 89.7219 134.834 90.0921 133.595 90.018C131.701 89.907 130.108 90.4375 128.71 91.1531C127.755 91.6342 126.958 92.1154 125.79 91.4245C123.844 92.0413 121.72 91.8193 119.667 91.8439C118.481 91.8563 117.384 91.918 116.482 92.4238C115.066 92.1771 113.898 93.2257 112.871 92.9296C111.898 92.6582 110.995 93.0283 110.411 92.7816C109.279 92.3128 108.748 93.164 107.775 93.053C106.66 92.9296 105.456 93.09 104.324 93.0284C103.244 92.979 102.483 93.2998 101.598 93.5835C100.519 93.9413 99.2799 93.0037 98.5544 93.3368C97.5987 93.7686 96.8377 92.7569 96.059 93.4231C95.9175 93.5465 95.0149 93.2504 94.5194 93.2998C93.9 93.3738 93.2806 93.5588 92.7851 93.7809C91.9002 94.188 91.4224 94.1757 91.2454 93.4355C91.21 93.2998 90.7853 93.09 90.5552 93.09C88.9271 93.0777 87.1396 92.7323 85.7239 93.2628C84.7151 93.6452 83.5294 92.7446 82.8392 93.5959C81.6889 93.6082 80.5386 93.6329 79.3883 93.6329C78.061 93.6452 76.7514 93.6452 75.4241 93.6452C69.3185 93.6576 63.1953 93.6699 57.0898 93.6699C56.1164 93.6699 55.09 93.6822 54.1697 93.4971C52.9486 93.2627 51.8337 92.7939 50.6303 92.5225C49.2499 92.2017 48.2766 93.2381 46.8785 93.0407C46.5599 92.9913 46.2237 93.053 45.8874 93.053C42.2595 93.0407 38.6139 93.0283 34.986 93.0037C34.6851 93.0037 34.3842 92.8803 34.0834 92.8186C34.3665 92.5965 34.5789 92.3251 34.9151 92.1524C35.9239 91.6219 37.6228 92.1524 38.4546 91.2888C38.5254 91.2271 39.1094 91.2764 39.3572 91.3751C41.8348 92.2881 44.5071 91.6959 47.0732 91.7329C47.781 91.7452 48.5243 91.3258 49.2499 91.1037C49.6392 90.9804 49.6216 90.783 49.1437 90.7089C47.9049 90.5362 46.8254 89.6232 45.4981 90.1167C43.9408 90.6842 42.348 90.5609 40.7198 90.6102C39.251 90.6596 37.6228 90.4992 36.3309 90.8323C34.8621 91.2148 33.464 91.1777 32.0128 91.2518C31.1987 91.2888 30.367 91.2764 29.5529 91.3381C29.0751 91.3751 29.2167 91.5232 29.2874 91.7453C29.4998 92.4115 29.0928 92.6582 28.3495 92.3498C27.4823 91.992 26.6683 91.7946 25.6064 91.8316C24.1199 91.881 22.6333 91.8316 21.1467 91.8193C20.6512 91.8193 20.1557 91.8193 19.6602 91.7946C19.5186 91.7823 19.3947 91.6836 19.2708 91.6219C19.4478 91.5108 19.6071 91.3875 19.8194 91.3134C19.9433 91.2641 20.1557 91.3258 20.2973 91.3011C20.7574 91.2271 21.1998 91.1284 21.66 91.042C21.2883 90.7459 21.0228 90.3511 20.545 90.1661C19.7309 89.8577 18.8284 89.5615 17.9081 89.4505C16.6339 89.2901 17.2179 88.0317 15.5898 88.1304C15.1651 88.1551 15.112 87.8837 15.5013 87.7603C15.6429 87.7109 15.7845 87.6616 15.9437 87.6493C17.0764 87.5259 16.9879 86.9954 16.9702 86.4895C16.9525 85.959 16.3508 85.8233 15.6606 85.8233C14.4926 85.8233 13.413 85.7987 12.4043 85.3052C12.0149 85.1201 11.1301 85.2065 10.5461 85.3175C9.78512 85.4532 8.91796 85.6383 8.38704 85.9714C7.32521 86.6376 6.65269 85.6013 5.76783 85.848C5.05994 86.0454 4.36976 86.5883 3.59108 86.2058C3.00707 85.9097 2.63543 85.3915 2.42306 84.9351C2.12221 84.2812 1.43202 83.9974 0.494069 83.7383C-0.266911 83.5656 0.0162375 82.8007 0.653337 82.8377ZM18.8815 22.6686C19.8017 22.6686 20.7397 22.6686 21.66 22.6686C20.7397 22.6686 19.8194 22.6686 18.8815 22.6686ZM26.8983 21.7433C27.1284 21.6446 27.3585 21.4965 27.6062 21.4719C27.3585 21.4965 27.1284 21.6446 26.8983 21.7433ZM34.7028 26.9003C36.5256 26.8386 38.4546 27.2087 40.1004 26.4068C40.242 26.4561 40.4013 26.4931 40.5075 26.5548C40.4013 26.4808 40.242 26.4561 40.1004 26.4068C38.4369 27.2087 36.5256 26.8386 34.7028 26.9003ZM75.4241 3.81712C75.1586 3.75544 74.8932 3.69376 74.61 3.63207C74.8932 3.68142 75.1586 3.7431 75.4241 3.81712ZM259.21 45.2089C259.104 45.2089 258.997 45.3199 258.909 45.3816C258.962 45.4433 259.015 45.4926 259.068 45.542C259.015 45.4926 258.962 45.4309 258.909 45.3816C259.015 45.3199 259.104 45.2089 259.21 45.2089ZM257.422 45.2582C257.475 45.3076 257.564 45.3816 257.546 45.4186C257.564 45.3816 257.458 45.3199 257.422 45.2582C257.316 45.2582 257.192 45.2335 257.139 45.2582C257.192 45.2335 257.316 45.2582 257.422 45.2582ZM265.368 47.5776C265.209 47.5776 265.032 47.5776 264.873 47.5776C264.837 47.5899 264.767 47.59 264.731 47.6023C264.784 47.59 264.837 47.5899 264.873 47.5776C265.032 47.5776 265.209 47.5776 265.368 47.5776ZM209.197 36.5234C208.914 36.4493 208.613 36.3753 208.33 36.3137C208.613 36.3753 208.897 36.4493 209.197 36.5234ZM93.4753 38.596C93.4222 38.633 93.3691 38.6701 93.316 38.7071C93.3691 38.7688 93.4222 38.8181 93.493 38.8798C93.4399 38.8181 93.3868 38.7688 93.316 38.7071C93.3691 38.6824 93.4222 38.633 93.4753 38.596ZM120.375 79.8891C120.304 79.9261 120.251 79.9631 120.18 79.9878C120.287 80.0371 120.393 80.1112 120.481 80.1728C120.375 80.1112 120.287 80.0371 120.18 79.9878C120.233 79.9631 120.304 79.9137 120.375 79.8891ZM36.8088 70.3523C36.9326 70.303 37.0388 70.2536 37.1627 70.2043C37.0388 70.2536 36.915 70.303 36.8088 70.3523Z" fill="#2793F2" fill-opacity="0.1"/>
</svg>
